<svg xmlns="http://www.w3.org/2000/svg" width="359" height="222" viewBox="0 0 359 222"><defs><style>.a{fill:#fff;}.b{fill:#0a3e86;}.c{fill:#fc121b;}.d{fill:#595959;}</style></defs><g transform="translate(-1237 -1596)"><rect class="a" width="359" height="222" transform="translate(1237 1596)"/><g transform="translate(1203.98 1511.959)"><g transform="translate(80.019 172.041)"><path class="b" d="M101.259,214.835c-.518,2.839.934,3.75,3.456,3.75,1.788,0,3.792-.678,4.2-2.465.483-2.127-2.679-2.532-5.745-3.516-3.031-.977-6.094-2.532-5.09-6.961,1.2-5.268,6.672-7.332,10.947-7.332,4.53,0,8.566,2.334,7.364,7.778h-5.934c.593-2.2-1.192-2.909-3.009-2.909-1.279,0-2.98.47-3.34,2.06-.422,1.858,2.789,2.2,5.883,3.178,3.067.977,6.015,2.6,5.028,6.959-1.386,6.112-6.745,8.072-11.753,8.072-5.234,0-9.308-2.431-7.941-8.615Z" transform="translate(-85.653 -181.885)"/><path class="b" d="M167.361,199.124h5.933l-5.467,24.123h-5.938Z" transform="translate(-110.698 -182.19)"/><path class="b" d="M132.776,199.122h10.653c3.942-.065,8,1.014,6.864,6.048a7.316,7.316,0,0,1-4.1,4.865c2.258.744,3.251,2.978,2.63,5.712-1.3,5.746-5.687,7.5-10.569,7.5H127.31Zm3.783,9.5h4.593a2.963,2.963,0,0,0,2.944-2.3c.4-1.757-.651-2.334-1.893-2.334h-4.594Zm-2.177,9.591h4.756c1.883,0,3.348-.71,3.8-2.7.483-2.131-.76-2.838-2.55-2.838h-4.753Z" transform="translate(-97.74 -182.188)"/><path class="c" d="M150.9,179.286c-3.28-8.712-22.051-9.706-41.917-2.225-14.168,5.34-25.068,13.549-28.968,20.982,5.39-5.632,14.1-11.166,24.6-15.124,19.869-7.489,38.638-6.492,41.919,2.222.945,2.5.506,5.362-1.063,8.354C150.281,188.478,152.451,183.39,150.9,179.286Z" transform="translate(-80.019 -172.041)"/></g><g transform="translate(155.572 194.143)"><path class="d" d="M200.852,226.5l3.617-18.606h8.4a10.518,10.518,0,0,1,3.755.5,3.181,3.181,0,0,1,1.763,1.771,4.71,4.71,0,0,1,.243,2.8,5.763,5.763,0,0,1-1.954,3.338,8.166,8.166,0,0,1-4.37,1.726,5.01,5.01,0,0,1,1.333.926,9.753,9.753,0,0,1,1.6,2.475l2.313,5.063H214.4l-1.756-3.871a27.25,27.25,0,0,0-1.312-2.564,4.243,4.243,0,0,0-1.032-1.244,3.074,3.074,0,0,0-1.048-.495,7.355,7.355,0,0,0-1.379-.089h-2.909L203.36,226.5Zm4.529-10.394h5.391a8.868,8.868,0,0,0,2.757-.349,3.728,3.728,0,0,0,1.691-1.117,3.624,3.624,0,0,0,.828-1.669,2.321,2.321,0,0,0-.555-2.17,3.968,3.968,0,0,0-2.918-.85h-6Z" transform="translate(-200.852 -207.579)"/><path class="d" d="M230.21,222.654a8.543,8.543,0,0,1,3.2-5.546,7.66,7.66,0,0,1,4.61-1.5,5.125,5.125,0,0,1,4.275,1.821q1.443,1.821.819,5.032a10.268,10.268,0,0,1-1.591,4.093,7.4,7.4,0,0,1-2.764,2.316,7.8,7.8,0,0,1-3.477.825,5.141,5.141,0,0,1-4.308-1.815Q229.547,226.068,230.21,222.654Zm2.392,0a5.06,5.06,0,0,0,.4,3.877,3.02,3.02,0,0,0,2.646,1.288,4.511,4.511,0,0,0,3.135-1.294,7.033,7.033,0,0,0,1.918-3.947,4.892,4.892,0,0,0-.421-3.789,3.013,3.013,0,0,0-2.626-1.288,4.539,4.539,0,0,0-3.145,1.282A6.849,6.849,0,0,0,232.6,222.654Z" transform="translate(-211.774 -210.47)"/><path class="d" d="M250.13,234.766l.158-2.145a4.855,4.855,0,0,0,1.292.2,2.915,2.915,0,0,0,1.291-.254,2.79,2.79,0,0,0,.9-.711,14.2,14.2,0,0,0,1.042-1.7q.1-.19.315-.558l-2.585-13.5h2.509l1.34,7.805a30.388,30.388,0,0,1,.389,3.122q.706-1.573,1.554-3.071L262.8,216.1h2.327L257.236,229.8a33.912,33.912,0,0,1-1.9,3.059,6.045,6.045,0,0,1-1.744,1.656,3.935,3.935,0,0,1-2.016.526A4.266,4.266,0,0,1,250.13,234.766Z" transform="translate(-219.318 -210.652)"/><path class="d" d="M281.836,227.73a11.13,11.13,0,0,1-2.785,1.523,8.062,8.062,0,0,1-2.653.445,4.274,4.274,0,0,1-3.267-1.085,3.008,3.008,0,0,1-.677-2.773,4.338,4.338,0,0,1,.811-1.808,4.985,4.985,0,0,1,1.458-1.314,7.046,7.046,0,0,1,1.82-.749,18.674,18.674,0,0,1,2.135-.343,24.107,24.107,0,0,0,4.3-.787q.1-.47.129-.6a2.185,2.185,0,0,0-.277-1.967,3.36,3.36,0,0,0-2.5-.775,4.745,4.745,0,0,0-2.534.565,4.474,4.474,0,0,0-1.546,2l-2.217-.3a6.966,6.966,0,0,1,1.472-2.316,5.79,5.79,0,0,1,2.32-1.358,10.173,10.173,0,0,1,3.208-.476,7.722,7.722,0,0,1,2.779.406,2.9,2.9,0,0,1,1.418,1.022,2.956,2.956,0,0,1,.422,1.554,12.947,12.947,0,0,1-.293,2.107l-.592,3.046a32.87,32.87,0,0,0-.635,4.029,4.339,4.339,0,0,0,.274,1.618h-2.431A4.315,4.315,0,0,1,281.836,227.73Zm.8-5.1a19.7,19.7,0,0,1-3.969.863,10.19,10.19,0,0,0-2.119.456,2.649,2.649,0,0,0-1.062.743,2.328,2.328,0,0,0-.535,1.085,1.621,1.621,0,0,0,.409,1.523,2.612,2.612,0,0,0,1.944.609,5.54,5.54,0,0,0,2.5-.577,4.759,4.759,0,0,0,1.845-1.58,6.268,6.268,0,0,0,.819-2.285Z" transform="translate(-227.653 -210.47)"/><path class="d" d="M296.13,226.5l3.617-18.606h2.327L298.457,226.5Z" transform="translate(-236.555 -207.579)"/><path class="d" d="M318.3,220.335l2.406-.2a4.422,4.422,0,0,0,.337,2.291,3.226,3.226,0,0,0,1.626,1.447,6.577,6.577,0,0,0,2.8.552,7.773,7.773,0,0,0,2.616-.419,4.571,4.571,0,0,0,1.859-1.149,3.23,3.23,0,0,0,.846-1.593,2.1,2.1,0,0,0-.22-1.529,2.94,2.94,0,0,0-1.493-1.1,29.093,29.093,0,0,0-3.2-.907,14.656,14.656,0,0,1-3.433-1.161,3.848,3.848,0,0,1-1.686-1.733,3.77,3.77,0,0,1-.216-2.317,5.678,5.678,0,0,1,1.326-2.633,6.589,6.589,0,0,1,2.741-1.86,10.153,10.153,0,0,1,3.6-.635,8.71,8.71,0,0,1,3.588.667,4.047,4.047,0,0,1,2.1,1.961,4.937,4.937,0,0,1,.361,2.932l-2.439.178a3.131,3.131,0,0,0-.794-2.666,4.45,4.45,0,0,0-3.129-.9,6.153,6.153,0,0,0-3.475.818,3.111,3.111,0,0,0-1.424,1.974,1.771,1.771,0,0,0,.416,1.649q.6.648,3.524,1.327a21.673,21.673,0,0,1,3.965,1.186,4.339,4.339,0,0,1,2.075,1.9,4.088,4.088,0,0,1,.275,2.646,6.085,6.085,0,0,1-1.41,2.8,7.478,7.478,0,0,1-2.886,2.043,9.834,9.834,0,0,1-3.795.73,10.028,10.028,0,0,1-4.169-.737,4.547,4.547,0,0,1-2.3-2.215A5.516,5.516,0,0,1,318.3,220.335Z" transform="translate(-244.827 -207.389)"/><path class="d" d="M355.217,225.052l2.348.292a7.545,7.545,0,0,1-2.732,3.211,7.459,7.459,0,0,1-4.152,1.142,5.246,5.246,0,0,1-4.424-1.821q-1.411-1.821-.772-5.108a9.045,9.045,0,0,1,2.811-5.28,7.354,7.354,0,0,1,4.993-1.878,4.86,4.86,0,0,1,4.142,1.84q1.388,1.84.739,5.178-.039.2-.131.609H347.8a4.419,4.419,0,0,0,.618,3.4,3.153,3.153,0,0,0,2.641,1.18,4.206,4.206,0,0,0,2.314-.66A5.771,5.771,0,0,0,355.217,225.052Zm-6.923-3.693h7.667a3.94,3.94,0,0,0-.383-2.551,2.913,2.913,0,0,0-2.627-1.32,4.486,4.486,0,0,0-2.9,1.054A5.2,5.2,0,0,0,348.294,221.359Z" transform="translate(-254.976 -210.47)"/><path class="d" d="M378.484,224.456l2.232.292a7.454,7.454,0,0,1-2.627,3.637,6.7,6.7,0,0,1-4.05,1.314,4.894,4.894,0,0,1-4.18-1.809q-1.363-1.808-.706-5.184a10.774,10.774,0,0,1,1.479-3.82,6.735,6.735,0,0,1,2.721-2.456,7.7,7.7,0,0,1,3.437-.818,4.9,4.9,0,0,1,3.443,1.11,4.084,4.084,0,0,1,1.21,3.154l-2.329.343a2.963,2.963,0,0,0-.747-2.043,2.509,2.509,0,0,0-1.851-.685,4.424,4.424,0,0,0-3.1,1.237,7.011,7.011,0,0,0-1.861,3.915q-.528,2.716.293,3.947a2.827,2.827,0,0,0,2.528,1.231,3.923,3.923,0,0,0,2.449-.825A5.16,5.16,0,0,0,378.484,224.456Z" transform="translate(-263.839 -210.47)"/><path class="d" d="M399.763,229.575l.385-1.98a6.267,6.267,0,0,1-4.8,2.285,5.033,5.033,0,0,1-2.18-.457,2.83,2.83,0,0,1-1.341-1.149,3.585,3.585,0,0,1-.388-1.694,11.537,11.537,0,0,1,.272-2.132l1.623-8.351h2.327l-1.452,7.475a13.32,13.32,0,0,0-.327,2.412,1.881,1.881,0,0,0,.656,1.415,2.5,2.5,0,0,0,1.659.514,4.464,4.464,0,0,0,2.067-.526,3.9,3.9,0,0,0,1.578-1.434,8.078,8.078,0,0,0,.894-2.633l1.4-7.222h2.327l-2.62,13.478Z" transform="translate(-272.269 -210.652)"/><path class="d" d="M413.872,229.393l2.62-13.478h2.095l-.4,2.043a7.443,7.443,0,0,1,1.848-1.891,3.057,3.057,0,0,1,1.583-.457,3.916,3.916,0,0,1,2.248.736l-1.214,2.12a2.89,2.89,0,0,0-1.61-.5,2.642,2.642,0,0,0-1.458.451,3.208,3.208,0,0,0-1.109,1.25,9.988,9.988,0,0,0-.906,2.666l-1.372,7.056Z" transform="translate(-280.677 -210.47)"/><path class="d" d="M429.731,226.5l2.62-13.478h2.327l-2.62,13.478Zm3.106-15.979.511-2.627h2.327l-.511,2.627Z" transform="translate(-286.62 -207.579)"/><path class="d" d="M445.988,224.71l-.056,2.018a9.4,9.4,0,0,1-1.8.2,3.59,3.59,0,0,1-1.889-.394,1.684,1.684,0,0,1-.782-1.034,7.92,7.92,0,0,1,.24-2.7l1.508-7.755H441.5l.345-1.777h1.707l.649-3.338,2.581-1.371-.915,4.709h2.34l-.345,1.777h-2.34l-1.532,7.882a3.85,3.85,0,0,0-.121,1.256.727.727,0,0,0,.315.445,1.392,1.392,0,0,0,.763.164A8.049,8.049,0,0,0,445.988,224.71Z" transform="translate(-290.999 -207.83)"/><path class="d" d="M452.6,226.5l2.62-13.478h2.327L454.927,226.5Zm3.105-15.979.511-2.627h2.327l-.51,2.627Z" transform="translate(-295.189 -207.579)"/><path class="d" d="M472.418,225.052l2.348.292a7.537,7.537,0,0,1-2.732,3.211,7.459,7.459,0,0,1-4.152,1.142,5.247,5.247,0,0,1-4.424-1.821q-1.411-1.821-.772-5.108a9.045,9.045,0,0,1,2.811-5.28,7.357,7.357,0,0,1,4.994-1.878,4.86,4.86,0,0,1,4.142,1.84q1.388,1.84.739,5.178-.04.2-.131.609H465a4.421,4.421,0,0,0,.619,3.4,3.152,3.152,0,0,0,2.641,1.18,4.2,4.2,0,0,0,2.313-.66A5.772,5.772,0,0,0,472.418,225.052Zm-6.924-3.693h7.667a3.936,3.936,0,0,0-.383-2.551,2.912,2.912,0,0,0-2.627-1.32,4.487,4.487,0,0,0-2.9,1.054A5.2,5.2,0,0,0,465.495,221.359Z" transform="translate(-298.895 -210.47)"/><path class="d" d="M485.3,225.37l2.37-.356a2.573,2.573,0,0,0,.675,2.082,3.252,3.252,0,0,0,2.336.723,4.255,4.255,0,0,0,2.5-.641,2.422,2.422,0,0,0,1.068-1.5,1.135,1.135,0,0,0-.448-1.219,8.544,8.544,0,0,0-2.229-.773,18.561,18.561,0,0,1-3.336-1.1,2.585,2.585,0,0,1-1.251-1.282,3.02,3.02,0,0,1-.159-1.808,4.075,4.075,0,0,1,.744-1.669,4.97,4.97,0,0,1,1.392-1.276,6,6,0,0,1,1.61-.667,7.731,7.731,0,0,1,2.063-.273,7.357,7.357,0,0,1,2.749.457,2.944,2.944,0,0,1,1.563,1.237,4.1,4.1,0,0,1,.4,2.088l-2.335.3a1.973,1.973,0,0,0-.583-1.624,2.855,2.855,0,0,0-1.988-.584,4.392,4.392,0,0,0-2.39.52,1.929,1.929,0,0,0-.922,1.219,1.084,1.084,0,0,0,.129.8,1.562,1.562,0,0,0,.773.61q.325.127,1.943.584a24.57,24.57,0,0,1,3.24,1.059,2.644,2.644,0,0,1,1.3,1.2,2.979,2.979,0,0,1,.176,1.955,4.611,4.611,0,0,1-1.1,2.152,5.743,5.743,0,0,1-2.262,1.561,8.047,8.047,0,0,1-3,.553,5.628,5.628,0,0,1-3.867-1.092A4.092,4.092,0,0,1,485.3,225.37Z" transform="translate(-307.443 -210.47)"/></g></g></g></svg>