<svg xmlns="http://www.w3.org/2000/svg" width="125.798" height="100.482" viewBox="0 0 125.798 100.482"><defs><style>.a{fill:#1f9fed;}</style></defs><g transform="translate(-143.452 -127.245)"><g transform="translate(175.168 127.245)"><g transform="translate(0 11.521)"><path class="a" d="M324.526,214.848a7.49,7.49,0,0,1-.782.466,14.667,14.667,0,0,1-1.979.865,14.182,14.182,0,0,1-2.845.667,13.7,13.7,0,0,1-11.176-3.634,12.225,12.225,0,0,1,1.4-18.866,13.223,13.223,0,0,0-8.111,16.574c-.178-.254-.345-.522-.5-.779a15.061,15.061,0,0,1,25.524-15.978c-.033-.048-.053-.089-.083-.136a18.541,18.541,0,0,0-25.287-6.916,18.287,18.287,0,0,0-9.032,13.558,16.6,16.6,0,0,1-.649-4.612,17.367,17.367,0,0,1,15.3-17.03,22.149,22.149,0,1,0,21.757,32.613,12.9,12.9,0,0,1-3.531,3.208" transform="translate(-286.006 -179.027)"/></g><path class="a" d="M419.3,149.4a22.459,22.459,0,0,0-42.073-10.63c.665-.048,1.344-.083,2.027-.083a22.276,22.276,0,0,1,22.4,22.151,21.875,21.875,0,0,1-2.742,10.642A22.263,22.263,0,0,0,419.3,149.4" transform="translate(-356.93 -127.245)"/></g><g transform="translate(143.452 190.63)"><path d="M144.335,429.4h.722a3.516,3.516,0,0,0,.7,1.574,1.447,1.447,0,0,0,1.124.558q1.224,0,1.585-1.813a18.116,18.116,0,0,0,.181-3.187v-5.06a1.087,1.087,0,0,0-.261-.787,2.062,2.062,0,0,0-.943-.448v-.837l1.334.07q.572.03,1.034.03h.2q.16,0,.5-.02h.291a2.375,2.375,0,0,0,.291-.02q.14,0,.411-.02l.592-.04v.877a1.147,1.147,0,0,0-1.063,1.2v5.578q0,.657-.05,1.2a4.816,4.816,0,0,1-.17.936l.02-.02a4.448,4.448,0,0,1-1.024,1.992,4.961,4.961,0,0,1-1.7,1.255,5.053,5.053,0,0,1-2.1.438,6.394,6.394,0,0,1-1.124-.139,14.439,14.439,0,0,1-1.445-.359Z" transform="translate(-143.452 -417.782)"/><path d="M207.588,423.151l1.044-3.307h11.66l1.1,3.426-.883.04A7.176,7.176,0,0,0,218.6,421.6a3.942,3.942,0,0,0-2-.578q-.682,0-.843.339a4.691,4.691,0,0,0-.1,1.295v4.94a14.283,14.283,0,0,0,.261,3.526,1.532,1.532,0,0,0,1.084.916v.9q-1.485-.12-2.669-.12a23.353,23.353,0,0,0-2.428.12v-.916a1.4,1.4,0,0,0,1.084-.837,5.958,5.958,0,0,0,.211-1.3q.07-.886.07-2.281v-5a3.05,3.05,0,0,0-.181-1.395.9.9,0,0,0-.662-.179q-2.107,0-4.054,2.39Z" transform="translate(-193.319 -418.131)"/><path d="M272.5,439.851a1.8,1.8,0,0,0,.662-.279,1.053,1.053,0,0,0,.341-.4l-.02.02a4.835,4.835,0,0,0,.17-.916,14.418,14.418,0,0,0,.07-1.574v-3.287q0-.538-.01-.887a4.277,4.277,0,0,0-.03-.468q-.181-.478-1.024-.5v-.8q.863-.2,1.666-.428t1.5-.468l-.02,1.893a3.706,3.706,0,0,1,3.051-1.793h.281a.847.847,0,0,0,.251.02h.391l-1,2.829h-.542a.947.947,0,0,0-.742-.458,1.2,1.2,0,0,0-1.1.677,4.907,4.907,0,0,0-.442,2.331v1.116q0,1.1.04,1.763a3.091,3.091,0,0,0,.161.946,1.173,1.173,0,0,0,.351.359,2.191,2.191,0,0,0,.652.3v.857q-.161-.02-.6-.05t-.783-.05H273.8c-.053,0-.218.01-.491.03s-.546.043-.813.07Z" transform="translate(-243.786 -425.927)"/><path d="M318.528,440.261a10.333,10.333,0,0,1-.542-1.255,5.076,5.076,0,0,1-7.365-.139v.02a2.853,2.853,0,0,1-.351-.618,4.384,4.384,0,0,1-.211-.657l.02.02a3.987,3.987,0,0,1-.12-.917q-.02-.557-.02-1.334v-2.65a3.175,3.175,0,0,0-.161-1.315q-.141-.179-.883-.2v-.877q.482-.04.793-.09a4.523,4.523,0,0,0,.632-.149q.341-.1.823-.259t1.124-.418q-.02.4-.04.876t-.04.966q-.02.489-.03.936t-.01.807v1.514a10.985,10.985,0,0,0,.341,3.347A2.188,2.188,0,0,0,314.8,439.3a3.076,3.076,0,0,0,1.475-.339,2.33,2.33,0,0,0,.973-.976,4.184,4.184,0,0,0,.412-1.315,11.323,11.323,0,0,0,.13-1.813v-1.594q0-.637-.01-1.016a4.632,4.632,0,0,0-.03-.5q-.161-.518-1.024-.538v-.837q.361-.04.813-.13c.3-.06.545-.116.733-.169q.16-.04.642-.2t1.184-.418q-.02.378-.04.837t-.04.936q-.02.478-.03.936t-.01.837v1.833q0,1.2.01,1.853t.03.837q.181,1.773,1.164,1.972v.8h-.391a1.4,1.4,0,0,1-.291-.02h.06q-.462-.02-.783-.02h-1.245Z" transform="translate(-272.087 -425.579)"/><path d="M367.14,436.755h.723a2.631,2.631,0,0,0,1.224,2.072,4.314,4.314,0,0,0,1.044.408,4.911,4.911,0,0,0,1.224.15,3.663,3.663,0,0,0,1.024-.14,3.471,3.471,0,0,0,.843-.359,1.782,1.782,0,0,0,.783-1.534,1.219,1.219,0,0,0-.8-1.215,10.231,10.231,0,0,0-1.947-.378q-4.195-.538-4.195-3.068a2.536,2.536,0,0,1,.462-1.494,3.56,3.56,0,0,1,1.3-1.1,6.77,6.77,0,0,1,3.051-.677,11.15,11.15,0,0,1,4.134.777l-.7,2.41h-.7A2.539,2.539,0,0,0,372,430.52a2.85,2.85,0,0,0-1.826.558,1.583,1.583,0,0,0-.662,1.3,1.131,1.131,0,0,0,.863,1.056q.221.06.682.139t1.2.179a7.179,7.179,0,0,1,3.251.9v-.02a2.324,2.324,0,0,1,1.023,2.052,3.289,3.289,0,0,1-1.866,3.068,7.378,7.378,0,0,1-3.532.777,11.718,11.718,0,0,1-2.458-.269,10.508,10.508,0,0,1-2.338-.787Z" transform="translate(-316.749 -425.579)"/><path d="M414.857,423.987l.381-.956a3.91,3.91,0,0,0,.984-.458,3.692,3.692,0,0,0,.8-.7,8.786,8.786,0,0,0,1.124-2.032h.783v.458a2.758,2.758,0,0,1-.02.4q-.02.16-.03.358c-.007.133-.017.273-.03.418v.408q0,.25-.02.568v.179h2.027v.6l-.3.757H418.79q0,.976.02,2.012t.02,1.992q.02,1.016.04,1.624a6.636,6.636,0,0,0,.061.827,1.723,1.723,0,0,0,1.344,1.613v.837q-.381-.04-.6-.05t-.442-.01c-.094,0-.2,0-.311-.01s-.231-.01-.351-.01h-.983a1.857,1.857,0,0,1-.622-.578,2.369,2.369,0,0,1-.321-.8q-.02-.159-.03-.5t-.01-.876v-1.175a2.9,2.9,0,0,0,.02-.319v-.239l.06-4.343Z" transform="translate(-354.474 -418.131)"/><path d="M478.533,432.474q-.241-.518-.431-1.006t-.351-.926q-.14-.338-.261-.717t-.261-.717a3.833,3.833,0,0,0-1.806-2.291,7.772,7.772,0,0,0-3.131-.438q-.321,0-.441-.01a2.312,2.312,0,0,0-.422.03v1.653q0,1.933.061,2.311a1.7,1.7,0,0,0,1.224,1.554v.857q-.2-.02-.682-.05t-.863-.05c-.174,0-.348,0-.522-.01s-.335-.01-.482-.01q-.261,0-.5.01c-.161.007-.321.01-.482.01-.107,0-.311.01-.612.03s-.572.043-.813.07v-.857a1.6,1.6,0,0,0,1.224-1.534,22.771,22.771,0,0,0,.06-2.331v-5.757a3.348,3.348,0,0,0-.181-1.434q-.1-.18-.863-.3v-.9c.093,0,.211,0,.351.01l.432.02q.22.01.441.01h4.054q2.208,0,2.99.06.421.04.833.089a4.806,4.806,0,0,1,.753.15q2.749.718,2.749,2.988a2.821,2.821,0,0,1-1.866,2.689,6.187,6.187,0,0,1-1.184.418,4.422,4.422,0,0,1,2.208,2.191q.12.259.281.627t.341.867a6.443,6.443,0,0,0,.753,1.394,1.558,1.558,0,0,0,.833.658v.856h-.482q-.421,0-.823-.02h-1.475a2.4,2.4,0,0,0-.291.02ZM472.272,420.9c-.147,0-.288,0-.421.01s-.274.01-.422.01v4.263a2.51,2.51,0,0,0,.311.02h.291a29.886,29.886,0,0,0,3.091-.129,5.781,5.781,0,0,0,1.786-.408,1.673,1.673,0,0,0,.983-1.633q0-2.131-4.475-2.131Z" transform="translate(-395.604 -417.992)"/><path d="M529.015,434.932a5.26,5.26,0,0,1,1.726-3.964,5.958,5.958,0,0,1,4.094-1.454,5.769,5.769,0,0,1,4.155,1.554,5.246,5.246,0,0,1,1.625,3.964,5.161,5.161,0,0,1-1.706,4.064h.02a4.954,4.954,0,0,1-1.836,1.106,7.233,7.233,0,0,1-2.318.349A5.766,5.766,0,0,1,530.621,439,5.481,5.481,0,0,1,529.015,434.932Zm2.529.02a5.418,5.418,0,0,0,.873,3.287,2.843,2.843,0,0,0,2.418,1.175,2.8,2.8,0,0,0,2.549-1.355v.02a5.95,5.95,0,0,0,.7-3.108,5.368,5.368,0,0,0-.853-3.267,2.847,2.847,0,0,0-2.419-1.136,3.017,3.017,0,0,0-1.465.339,3.191,3.191,0,0,0-1.084,1v-.02a5,5,0,0,0-.532,1.345A7.147,7.147,0,0,0,531.544,434.951Z" transform="translate(-443.234 -425.648)"/><path d="M581.107,441.724h.642a3.056,3.056,0,0,0,.211.419,1.28,1.28,0,0,0,.15.2.861.861,0,0,0,.482.119,1.219,1.219,0,0,0,.984-.558,2.009,2.009,0,0,0,.442-1.2,3.96,3.96,0,0,0-.5-1.713l-2.529-5.159-.662-1.235a7.188,7.188,0,0,0-.5-.837,1.758,1.758,0,0,0-.984-.717v-.817q.7.06,1.2.08t.883.02q.381,0,1.445-.06h-.06a1.35,1.35,0,0,1,.281-.02h.361v.8a2.876,2.876,0,0,0-.682.259c-.027,0-.04.02-.04.06a4,4,0,0,0,.522,1.295l2.87,5.3q.522-1.076,1-2.141t1-2.161a13.079,13.079,0,0,0,.491-1.215,2.45,2.45,0,0,0,.15-.7q0-.458-1.264-.677l.4-.817q.542.04,1.043.06t.743.02q.281,0,.883-.03t1.184-.07v.777q-1.1.439-2.408,3.088l-3.432,6.892q-1.806,3.605-4.134,3.606a3.357,3.357,0,0,1-.442-.04q-.281-.04-.742-.14Z" transform="translate(-481.973 -426.206)"/><path d="M645.8,440.3q-.2,0-.472-.01c-.181-.007-.325-.01-.431-.01-.188-.013-.341-.02-.462-.02h-1.044a3.487,3.487,0,0,1-.351-.588q-.11-.249-.19-.488c-.027-.053-.047-.077-.061-.07s-.02.013-.02.02v-.01c0-.013-.007-.06-.02-.139a4.405,4.405,0,0,1-1.565,1.105,5.151,5.151,0,0,1-2.067.408,4.788,4.788,0,0,1-3.131-.926,3.114,3.114,0,0,1-1.124-2.54,2.867,2.867,0,0,1,1.906-2.659,13.887,13.887,0,0,1,5.72-.906h.08a6.672,6.672,0,0,0-.211-1.175,2.825,2.825,0,0,0-.391-.877,2.462,2.462,0,0,0-2.127-.877,2.855,2.855,0,0,0-3.131,2.55H636l-.763-2.49a9.945,9.945,0,0,1,2.3-.887,10.1,10.1,0,0,1,2.419-.289,5.258,5.258,0,0,1,3.853,1.275,3.767,3.767,0,0,1,.883,1.753q.04.279.07.737t.03,1.1v1.354q0,1.673.06,2.271a2.708,2.708,0,0,0,.411,1.056,1.289,1.289,0,0,0,.733.538Zm-3.211-5.717h-.442a8.447,8.447,0,0,0-3.151.518,2.222,2.222,0,0,0-1.646,2.072,1.925,1.925,0,0,0,.6,1.514,2.381,2.381,0,0,0,1.646.538,2.764,2.764,0,0,0,2.248-.936,3.613,3.613,0,0,0,.743-2.41Z" transform="translate(-525.529 -425.579)"/><path d="M687.681,426.087a1.647,1.647,0,0,0,1.164-1.474,15.729,15.729,0,0,0,.08-2.152v-6.913a9.049,9.049,0,0,0-.04-.956,1.963,1.963,0,0,0-.1-.5q-.12-.16-.923-.179v-.857a9.506,9.506,0,0,0,1.605-.319q.844-.239,1.786-.6-.02.339-.04.817t-.03,1q-.01.519-.02,1.066t-.01,1.026v6.315q0,1.733.06,2.211a1.743,1.743,0,0,0,1.184,1.514v.837q-.542-.04-.883-.07t-.5-.03h-2.248q-.08,0-.351.03t-.733.07Z" transform="translate(-566.6 -412.143)"/><path d="M310.834,531.514a1.428,1.428,0,0,0,1.224-1.215v.02a19.334,19.334,0,0,0,.06-2.072v-6.793a1.074,1.074,0,0,0-1.064-1.2v-.877h3.753q.482,0,1.124-.02t1.124-.02h.823q5.479,0,5.479,3.167,0,1.912-2.248,2.729,3.271.8,3.271,3.307a3.146,3.146,0,0,1-1.656,2.9,9.875,9.875,0,0,1-4.887.966h-.722q-.422,0-.944-.02c-.107,0-.244,0-.411-.01s-.311-.01-.431-.01q-.823-.02-1.445-.02h-2.077q-.171,0-.351.01l-.341.02c-.107.006-.2.01-.281.01Zm4.014-10.956a.8.8,0,0,1-.19.02h-.211v4.283h2.208q4.114,0,4.114-2.271,0-2.071-4.175-2.072h-.522q-.3,0-.7.02c-.094,0-.177,0-.251.01S314.955,520.557,314.848,520.557Zm-.4,7.191q0,1.235.03,1.982a5.515,5.515,0,0,0,.09.966q.1.4.963.5a3.461,3.461,0,0,0,.492.02h1.094a7.028,7.028,0,0,0,3.442-.667,2.138,2.138,0,0,0,1.154-1.962q0-2.57-5-2.57h-1.867c-.12,0-.254.007-.4.02Z" transform="translate(-273.595 -495.492)"/><path d="M388.058,539.979q-.2,0-.471-.01c-.181-.007-.325-.01-.432-.01-.188-.013-.341-.02-.462-.02H385.65a3.508,3.508,0,0,1-.351-.587q-.11-.249-.19-.488c-.027-.053-.047-.076-.06-.07s-.02.013-.02.02v-.01c0-.013-.007-.06-.02-.139a4.409,4.409,0,0,1-1.565,1.105,5.152,5.152,0,0,1-2.067.409,4.789,4.789,0,0,1-3.131-.926,3.114,3.114,0,0,1-1.124-2.54,2.868,2.868,0,0,1,1.907-2.66,13.89,13.89,0,0,1,5.72-.906h.08a6.684,6.684,0,0,0-.211-1.175,2.813,2.813,0,0,0-.391-.876,2.461,2.461,0,0,0-2.127-.877,2.854,2.854,0,0,0-3.131,2.55h-.7l-.763-2.49a9.943,9.943,0,0,1,2.3-.887,10.091,10.091,0,0,1,2.418-.289,5.259,5.259,0,0,1,3.853,1.275,3.763,3.763,0,0,1,.883,1.753q.04.279.07.737t.03,1.1v1.354q0,1.673.06,2.271a2.708,2.708,0,0,0,.411,1.056,1.29,1.29,0,0,0,.733.538Zm-3.211-5.717h-.441a8.446,8.446,0,0,0-3.151.518,2.222,2.222,0,0,0-1.646,2.072,1.925,1.925,0,0,0,.6,1.514,2.382,2.382,0,0,0,1.646.538,2.765,2.765,0,0,0,2.248-.936,3.615,3.615,0,0,0,.742-2.41Z" transform="translate(-325.133 -503.081)"/><path d="M430.761,539.251a1.686,1.686,0,0,0,.632-.279,1.081,1.081,0,0,0,.331-.4h-.02a8.683,8.683,0,0,0,.241-2.609v-3.327a6.413,6.413,0,0,0-.06-1.175q-.12-.438-.963-.458v-.777q.642-.159,1.415-.389t1.656-.548v1.534a4,4,0,0,1,1.535-1.2,5.162,5.162,0,0,1,2.177-.438A3.9,3.9,0,0,1,441.317,531v-.02a3.076,3.076,0,0,1,.321.687,6.421,6.421,0,0,1,.2.787,6.145,6.145,0,0,1,.11,1q.03.638.03,1.494v.737q0,.977.01,1.5t.03.668a1.537,1.537,0,0,0,1.144,1.394v.857c-.12-.013-.328-.03-.622-.05s-.556-.037-.783-.05h-1.786c-.027,0-.191.007-.492.02s-.605.033-.913.06v-.837a1.917,1.917,0,0,0,.642-.269.977.977,0,0,0,.341-.389,8.414,8.414,0,0,0,.221-2.49v-1.155a7.318,7.318,0,0,0-.592-3.406,2.031,2.031,0,0,0-1.916-1.056,2.648,2.648,0,0,0-2.318,1.135,5.8,5.8,0,0,0-.793,3.327v.916a18.342,18.342,0,0,0,.06,2.052,1.509,1.509,0,0,0,1.124,1.334v.857c-.12-.013-.328-.03-.622-.05s-.549-.037-.763-.05h-1.846q-.06,0-.492.02t-.853.06Z" transform="translate(-366.84 -503.15)"/><path d="M489.811,525.745a1.4,1.4,0,0,0,.964-.717,4.963,4.963,0,0,0,.17-.956,17.072,17.072,0,0,0,.07-1.733v-7.171a4.266,4.266,0,0,0-.141-1.395,1.9,1.9,0,0,0-.883-.179v-.857a8.757,8.757,0,0,0,1.415-.279,17.78,17.78,0,0,0,1.937-.637q0,.159-.01.438t-.02.627q-.01.349-.02.727t-.01.717l-.06,1.694v1.026q0,.448.01.886t.01.887v1.026q.522-.418,1.014-.846t.993-.827a11.083,11.083,0,0,0,.913-.857q.331-.358.331-.538a.6.6,0,0,1-.14-.02c-.04-.013-.09-.026-.151-.04a2.134,2.134,0,0,1-.211-.06v-.817q.462.04.833.06t.672.02q.341.02.522.02h.221a.985.985,0,0,0,.121-.01,1.766,1.766,0,0,1,.2-.01c.067,0,.147,0,.241-.01s.194-.01.3-.01h.161q.3-.02.783-.03t.742-.01v.837q-.622.14-1.083.259a3.955,3.955,0,0,0-.743.259,9.226,9.226,0,0,0-1.666,1.036l-2.208,1.614a3.786,3.786,0,0,1,1.4.518,6.955,6.955,0,0,1,1.706,1.753.34.34,0,0,1,.07.119,1.558,1.558,0,0,0,.07.16l-.02-.04a2.916,2.916,0,0,1,.361.518,15.18,15.18,0,0,0,1.415,1.773,6.064,6.064,0,0,0,1.334,1.116v.8q-.241-.02-.782-.04l-1-.04H498.04q-.2-.338-.572-.926t-.813-1.3q-2.027-3.247-2.749-3.247a.573.573,0,0,0-.482.239,3.063,3.063,0,0,0-.2,1.295,13.312,13.312,0,0,0,.07,1.514,4.419,4.419,0,0,0,.191.936,1.466,1.466,0,0,0,.983.737v.857q-.161-.02-.592-.05c-.288-.02-.539-.037-.753-.05h-2.067q-.161,0-.472.03t-.773.069Z" transform="translate(-412.752 -489.645)"/></g></g></svg>